<svg width="25" height="24" viewBox="0 0 25 24" fill="none" xmlns="http://www.w3.org/2000/svg">
<path d="M4.90039 17.9808V9.70753C4.90039 6.07416 4.90039 4.25748 6.07196 3.12874C7.24354 2 9.12915 2 12.9004 2C16.6716 2 18.5573 2 19.7288 3.12874C20.9004 4.25748 20.9004 6.07416 20.9004 9.70753V17.9808C20.9004 20.2867 20.9004 21.4396 20.1276 21.8523C18.6309 22.6514 15.8236 19.9852 14.4904 19.1824C13.7172 18.7168 13.3306 18.484 12.9004 18.484C12.4702 18.484 12.0836 18.7168 11.3104 19.1824C9.97719 19.9852 7.16986 22.6514 5.67324 21.8523C4.90039 21.4396 4.90039 20.2867 4.90039 17.9808Z" stroke="white" stroke-opacity="0.6" stroke-width="1.5" stroke-linecap="round" stroke-linejoin="round"/>
</svg>
