<svg width="20" height="18" viewBox="0 0 20 18" fill="none" xmlns="http://www.w3.org/2000/svg">
<path d="M16.5615 11.0195C18.4613 11.0197 20 12.5329 20 14.3994C19.9999 16.2648 18.4613 17.7771 16.5615 17.7773C14.6627 17.7773 13.1222 16.2649 13.1221 14.3994C13.1221 12.5327 14.6626 11.0195 16.5615 11.0195ZM8.08301 12.958C8.91523 12.958 9.59082 13.6218 9.59082 14.4395C9.59072 15.2559 8.91517 15.9209 8.08301 15.9209H1.50781C0.675654 15.9209 9.58574e-05 15.2559 0 14.4395C0 13.6218 0.675595 12.958 1.50781 12.958H8.08301ZM3.43848 0C5.33847 0 6.87793 1.51333 6.87793 3.37891C6.87774 5.24542 5.33835 6.75781 3.43848 6.75781C1.5399 6.7576 0.00019011 5.24529 0 3.37891C0 1.51346 1.53978 0.00020882 3.43848 0ZM18.4932 1.89844C19.3243 1.89844 20 2.56238 20 3.37891C19.9998 4.19637 19.3242 4.86035 18.4932 4.86035H11.918C11.0859 4.86035 10.4103 4.19637 10.4102 3.37891C10.4102 2.56238 11.0858 1.89844 11.918 1.89844H18.4932Z" fill="white"/>
</svg>
