<svg width="25" height="24" viewBox="0 0 25 24" fill="none" xmlns="http://www.w3.org/2000/svg">
<path d="M7.78868 4.76364L6.78867 5.54453C5.27202 6.72887 4.51368 7.32105 4.10694 8.15601C3.7002 8.99097 3.7002 9.95552 3.7002 11.8846V13.9767C3.7002 17.763 3.7002 19.6562 4.87177 20.8325C5.81486 21.7793 7.22063 21.964 9.7002 22V18.0057C9.7002 17.0738 9.7002 16.6078 9.85244 16.2403C10.0554 15.7502 10.4448 15.3609 10.9348 15.1579C11.3024 15.0057 11.7683 15.0057 12.7002 15.0057C13.6321 15.0057 14.098 15.0057 14.4656 15.1579C14.9556 15.3609 15.345 15.7502 15.548 16.2403C15.7002 16.6078 15.7002 17.0738 15.7002 18.0057V22C18.1798 21.964 19.5855 21.7793 20.5286 20.8325C21.7002 19.6562 21.7002 17.763 21.7002 13.9767V11.8846C21.7002 9.95552 21.7002 8.99097 21.2935 8.15601C20.8867 7.32105 20.1284 6.72887 18.6117 5.54453L17.6117 4.76364C15.2523 2.92121 14.0726 2 12.7002 2C11.3278 2 10.1481 2.92121 7.78868 4.76364Z" stroke="#AD59F3" stroke-width="1.5" stroke-linejoin="round"/>
</svg>
