<svg width="25" height="24" viewBox="0 0 25 24" fill="none" xmlns="http://www.w3.org/2000/svg">
<path d="M15.408 17.9946C15.14 17.9945 14.8766 17.9246 14.6438 17.7916C14.1513 17.5122 13.8454 16.9833 13.8454 16.411V10.8805C13.8454 10.3087 14.1509 9.77994 14.6429 9.5003C14.8878 9.36038 15.1663 9.29025 15.4483 9.29753C15.7302 9.30481 16.0048 9.38923 16.2422 9.54162L18.1407 10.7573L20.5613 12.3075C21.0168 12.599 21.289 13.0993 21.289 13.6459C21.289 14.1924 21.0168 14.6925 20.5613 14.9842L18.0801 16.5731L16.243 17.7496C15.9938 17.9094 15.704 17.9944 15.408 17.9946ZM15.408 10.7335C15.389 10.7335 15.3703 10.7385 15.3538 10.7479L15.3524 10.7488C15.3301 10.7626 15.3117 10.782 15.2992 10.805C15.2866 10.828 15.2803 10.8539 15.2807 10.8801V16.4109C15.2803 16.4371 15.2866 16.463 15.2992 16.486C15.3117 16.509 15.3301 16.5284 15.3524 16.5422L15.3538 16.543C15.3714 16.5531 15.3915 16.5581 15.4118 16.5574C15.4321 16.5567 15.4518 16.5504 15.4688 16.5392L17.3053 15.363L19.786 13.7749C19.8064 13.7602 19.823 13.7408 19.8345 13.7184C19.8459 13.696 19.8519 13.6711 19.8519 13.646C19.8519 13.6208 19.8459 13.596 19.8345 13.5736C19.823 13.5512 19.8064 13.5318 19.786 13.517C19.1151 13.0872 18.2319 12.5217 17.3654 11.9668L15.4684 10.7514C15.4505 10.7398 15.4297 10.7336 15.4084 10.7335H15.408ZM11.1856 17.825H4.4295C4.33443 17.8262 4.24006 17.8085 4.15187 17.773C4.06368 17.7375 3.98342 17.6848 3.91576 17.618C3.84809 17.5512 3.79437 17.4716 3.7577 17.3839C3.72103 17.2961 3.70215 17.202 3.70215 17.1069C3.70215 17.0118 3.72103 16.9177 3.7577 16.83C3.79437 16.7423 3.84809 16.6627 3.91576 16.5959C3.98342 16.5291 4.06368 16.4764 4.15187 16.4409C4.24006 16.4053 4.33443 16.3877 4.4295 16.3889H11.1856C11.2806 16.3877 11.375 16.4053 11.4632 16.4409C11.5514 16.4764 11.6316 16.5291 11.6993 16.5959C11.767 16.6627 11.8207 16.7423 11.8574 16.83C11.894 16.9177 11.9129 17.0118 11.9129 17.1069C11.9129 17.202 11.894 17.2961 11.8574 17.3839C11.8207 17.4716 11.767 17.5512 11.6993 17.618C11.6316 17.6848 11.5514 17.7375 11.4632 17.773C11.375 17.8085 11.2806 17.8262 11.1856 17.825ZM11.1856 14.3639H4.4295C4.33443 14.3652 4.24006 14.3475 4.15187 14.312C4.06368 14.2764 3.98342 14.2237 3.91576 14.1569C3.84809 14.0901 3.79437 14.0106 3.7577 13.9229C3.72103 13.8351 3.70215 13.741 3.70215 13.6459C3.70215 13.5508 3.72103 13.4567 3.7577 13.369C3.79437 13.2813 3.84809 13.2017 3.91576 13.1349C3.98342 13.0681 4.06368 13.0154 4.15187 12.9799C4.24006 12.9443 4.33443 12.9267 4.4295 12.9279H11.1856C11.2806 12.9267 11.375 12.9443 11.4632 12.9799C11.5514 13.0154 11.6316 13.0681 11.6993 13.1349C11.767 13.2017 11.8207 13.2813 11.8574 13.369C11.894 13.4567 11.9129 13.5508 11.9129 13.6459C11.9129 13.741 11.894 13.8351 11.8574 13.9229C11.8207 14.0106 11.767 14.0901 11.6993 14.1569C11.6316 14.2237 11.5514 14.2764 11.4632 14.312C11.375 14.3475 11.2806 14.3652 11.1856 14.3639ZM11.1856 10.9028H4.4295C4.33443 10.904 4.24006 10.8864 4.15187 10.8508C4.06368 10.8153 3.98342 10.7626 3.91576 10.6958C3.84809 10.629 3.79437 10.5494 3.7577 10.4617C3.72103 10.374 3.70215 10.2799 3.70215 10.1848C3.70215 10.0897 3.72103 9.99557 3.7577 9.90784C3.79437 9.82012 3.84809 9.74055 3.91576 9.67375C3.98342 9.60695 4.06368 9.55426 4.15187 9.51873C4.24006 9.48319 4.33443 9.46552 4.4295 9.46675H11.1856C11.2806 9.46552 11.375 9.48319 11.4632 9.51873C11.5514 9.55426 11.6316 9.60695 11.6993 9.67375C11.767 9.74055 11.8207 9.82012 11.8574 9.90784C11.894 9.99557 11.9129 10.0897 11.9129 10.1848C11.9129 10.2799 11.894 10.374 11.8574 10.4617C11.8207 10.5494 11.767 10.629 11.6993 10.6958C11.6316 10.7626 11.5514 10.8153 11.4632 10.8508C11.375 10.8864 11.2806 10.904 11.1856 10.9028ZM20.5706 7.44179H4.4295C4.23905 7.44179 4.0564 7.36614 3.92173 7.23147C3.78706 7.0968 3.71141 6.91415 3.71141 6.7237C3.71141 6.53326 3.78706 6.35061 3.92173 6.21594C4.0564 6.08127 4.23905 6.00562 4.4295 6.00562H20.5706C20.7611 6.00562 20.9437 6.08127 21.0784 6.21594C21.2131 6.35061 21.2887 6.53326 21.2887 6.7237C21.2887 6.91415 21.2131 7.0968 21.0784 7.23147C20.9437 7.36614 20.7611 7.44179 20.5706 7.44179Z" fill="white" fill-opacity="0.6"/>
</svg>
