<svg width="25" height="24" viewBox="0 0 25 24" fill="none" xmlns="http://www.w3.org/2000/svg">
<path d="M15.407 17.9949C15.139 17.9948 14.8756 17.9248 14.6428 17.7919C14.1503 17.5125 13.8444 16.9835 13.8444 16.4112V10.8807C13.8444 10.3089 14.15 9.78019 14.6419 9.50055C14.8868 9.36062 15.1653 9.29049 15.4473 9.29777C15.7293 9.30506 16.0038 9.38948 16.2412 9.54186L18.1397 10.7575L20.5603 12.3077C21.0159 12.5993 21.288 13.0996 21.288 13.6461C21.288 14.1926 21.0159 14.6928 20.5603 14.9845L18.0791 16.5734L16.242 17.7499C15.9928 17.9097 15.7031 17.9947 15.407 17.9949ZM15.407 10.7337C15.388 10.7338 15.3693 10.7387 15.3528 10.7482L15.3514 10.749C15.3291 10.7628 15.3108 10.7822 15.2982 10.8052C15.2857 10.8283 15.2793 10.8541 15.2797 10.8804V16.4111C15.2793 16.4373 15.2857 16.4632 15.2982 16.4863C15.3108 16.5093 15.3291 16.5286 15.3514 16.5425L15.3528 16.5433C15.3705 16.5534 15.3906 16.5583 15.4109 16.5577C15.4312 16.557 15.4509 16.5507 15.4678 16.5395L17.3043 15.3632L19.7851 13.7752C19.8055 13.7604 19.8221 13.741 19.8335 13.7186C19.845 13.6962 19.8509 13.6714 19.8509 13.6462C19.8509 13.621 19.845 13.5962 19.8335 13.5738C19.8221 13.5514 19.8055 13.532 19.7851 13.5173C19.1141 13.0874 18.2309 12.5219 17.3644 11.9671L15.4674 10.7517C15.4496 10.74 15.4287 10.7338 15.4074 10.7337H15.407ZM11.1846 17.8252H4.42852C4.33345 17.8264 4.23908 17.8088 4.15089 17.7732C4.0627 17.7377 3.98244 17.685 3.91478 17.6182C3.84712 17.5514 3.79339 17.4718 3.75672 17.3841C3.72005 17.2964 3.70117 17.2023 3.70117 17.1072C3.70117 17.0121 3.72005 16.918 3.75672 16.8302C3.79339 16.7425 3.84712 16.6629 3.91478 16.5961C3.98244 16.5293 4.0627 16.4767 4.15089 16.4411C4.23908 16.4056 4.33345 16.3879 4.42852 16.3891H11.1846C11.2797 16.3879 11.374 16.4056 11.4622 16.4411C11.5504 16.4767 11.6307 16.5293 11.6983 16.5961C11.766 16.6629 11.8197 16.7425 11.8564 16.8302C11.893 16.918 11.9119 17.0121 11.9119 17.1072C11.9119 17.2023 11.893 17.2964 11.8564 17.3841C11.8197 17.4718 11.766 17.5514 11.6983 17.6182C11.6307 17.685 11.5504 17.7377 11.4622 17.7732C11.374 17.8088 11.2797 17.8264 11.1846 17.8252ZM11.1846 14.3642H4.42852C4.33345 14.3654 4.23908 14.3477 4.15089 14.3122C4.0627 14.2767 3.98244 14.224 3.91478 14.1572C3.84712 14.0904 3.79339 14.0108 3.75672 13.9231C3.72005 13.8354 3.70117 13.7412 3.70117 13.6462C3.70117 13.5511 3.72005 13.4569 3.75672 13.3692C3.79339 13.2815 3.84712 13.2019 3.91478 13.1351C3.98244 13.0683 4.0627 13.0156 4.15089 12.9801C4.23908 12.9446 4.33345 12.9269 4.42852 12.9281H11.1846C11.2797 12.9269 11.374 12.9446 11.4622 12.9801C11.5504 13.0156 11.6307 13.0683 11.6983 13.1351C11.766 13.2019 11.8197 13.2815 11.8564 13.3692C11.893 13.4569 11.9119 13.5511 11.9119 13.6462C11.9119 13.7412 11.893 13.8354 11.8564 13.9231C11.8197 14.0108 11.766 14.0904 11.6983 14.1572C11.6307 14.224 11.5504 14.2767 11.4622 14.3122C11.374 14.3477 11.2797 14.3654 11.1846 14.3642ZM11.1846 10.9031H4.42852C4.33345 10.9043 4.23908 10.8866 4.15089 10.8511C4.0627 10.8155 3.98244 10.7628 3.91478 10.6961C3.84712 10.6293 3.79339 10.5497 3.75672 10.462C3.72005 10.3742 3.70117 10.2801 3.70117 10.185C3.70117 10.0899 3.72005 9.99581 3.75672 9.90809C3.79339 9.82036 3.84712 9.74079 3.91478 9.674C3.98244 9.6072 4.0627 9.5545 4.15089 9.51897C4.23908 9.48343 4.33345 9.46577 4.42852 9.46699H11.1846C11.2797 9.46577 11.374 9.48343 11.4622 9.51897C11.5504 9.5545 11.6307 9.6072 11.6983 9.674C11.766 9.74079 11.8197 9.82036 11.8564 9.90809C11.893 9.99581 11.9119 10.0899 11.9119 10.185C11.9119 10.2801 11.893 10.3742 11.8564 10.462C11.8197 10.5497 11.766 10.6293 11.6983 10.6961C11.6307 10.7628 11.5504 10.8155 11.4622 10.8511C11.374 10.8866 11.2797 10.9043 11.1846 10.9031ZM20.5697 7.44204H4.42852C4.23807 7.44204 4.05542 7.36638 3.92075 7.23171C3.78609 7.09705 3.71043 6.9144 3.71043 6.72395C3.71043 6.5335 3.78609 6.35085 3.92075 6.21618C4.05542 6.08151 4.23807 6.00586 4.42852 6.00586H20.5697C20.7601 6.00586 20.9428 6.08151 21.0774 6.21618C21.2121 6.35085 21.2877 6.5335 21.2877 6.72395C21.2877 6.9144 21.2121 7.09705 21.0774 7.23171C20.9428 7.36638 20.7601 7.44204 20.5697 7.44204Z" fill="#AD59F3"/>
</svg>
