<svg width="25" height="24" viewBox="0 0 25 24" fill="none" xmlns="http://www.w3.org/2000/svg">
<path d="M12.1006 14C13.2052 14 14.1006 13.1046 14.1006 12C14.1006 10.8954 13.2052 10 12.1006 10C10.996 10 10.1006 10.8954 10.1006 12C10.1006 13.1046 10.996 14 12.1006 14Z" stroke="#AD59F3" stroke-width="1.5" stroke-linecap="round" stroke-linejoin="round"/>
<path d="M7.60059 8C6.60059 9 6.10059 10.5 6.10059 12C6.10059 13.5 6.60059 15 7.60059 16" stroke="#AD59F3" stroke-width="1.5" stroke-linecap="round" stroke-linejoin="round"/>
<path d="M4.60059 6C3.10059 7.5 2.10059 9.5 2.10059 12C2.10059 14.5 3.10059 16.5 4.60059 18" stroke="#AD59F3" stroke-width="1.5" stroke-linecap="round" stroke-linejoin="round"/>
<path d="M16.6006 16C17.6006 15 18.1006 13.5 18.1006 12C18.1006 10.5 17.6006 9 16.6006 8" stroke="#AD59F3" stroke-width="1.5" stroke-linecap="round" stroke-linejoin="round"/>
<path d="M19.6006 18C21.1006 16.5 22.1006 14.5 22.1006 12C22.1006 9.5 21.1006 7.5 19.6006 6" stroke="#AD59F3" stroke-width="1.5" stroke-linecap="round" stroke-linejoin="round"/>
</svg>
