<svg width="21" height="20" viewBox="0 0 21 20" fill="none" xmlns="http://www.w3.org/2000/svg">
<path d="M18.6251 16.875H14.8251C16.4808 15.8319 17.7042 14.2259 18.2702 12.3526C18.8361 10.4793 18.7066 8.46468 17.9055 6.67926C17.1044 4.89384 15.6855 3.45774 13.9098 2.63515C12.1342 1.81255 10.1212 1.65878 8.24126 2.20213C6.36128 2.74548 4.74073 3.94939 3.6777 5.59241C2.61467 7.23543 2.18066 9.20704 2.45552 11.1446C2.73039 13.0821 3.69562 14.8552 5.17368 16.1377C6.65173 17.4203 8.54319 18.126 10.5001 18.125H18.6251C18.7909 18.125 18.9498 18.0592 19.0671 17.9419C19.1843 17.8247 19.2501 17.6658 19.2501 17.5C19.2501 17.3342 19.1843 17.1753 19.0671 17.0581C18.9498 16.9409 18.7909 16.875 18.6251 16.875ZM6.75011 11.5625C6.44108 11.5625 6.13899 11.4709 5.88204 11.2992C5.62508 11.1275 5.42481 10.8835 5.30655 10.5979C5.18829 10.3124 5.15735 9.99827 5.21764 9.69518C5.27793 9.39208 5.42674 9.11367 5.64526 8.89515C5.86378 8.67663 6.14219 8.52782 6.44528 8.46753C6.74838 8.40724 7.06255 8.43818 7.34806 8.55644C7.63357 8.6747 7.8776 8.87497 8.04929 9.13193C8.22097 9.38888 8.31261 9.69097 8.31261 10C8.31261 10.4144 8.14799 10.8118 7.85497 11.1049C7.56194 11.3979 7.16451 11.5625 6.75011 11.5625ZM10.5001 15.3125C10.1911 15.3125 9.88899 15.2209 9.63204 15.0492C9.37508 14.8775 9.17481 14.6335 9.05655 14.3479C8.93829 14.0624 8.90735 13.7483 8.96764 13.4452C9.02793 13.1421 9.17674 12.8637 9.39526 12.6452C9.61378 12.4266 9.89219 12.2778 10.1953 12.2175C10.4984 12.1572 10.8125 12.1882 11.0981 12.3064C11.3836 12.4247 11.6276 12.625 11.7993 12.8819C11.971 13.1389 12.0626 13.441 12.0626 13.75C12.0626 14.1644 11.898 14.5618 11.605 14.8549C11.3119 15.1479 10.9145 15.3125 10.5001 15.3125ZM10.5001 7.8125C10.1911 7.8125 9.88899 7.72087 9.63204 7.54918C9.37508 7.37749 9.17481 7.13346 9.05655 6.84795C8.93829 6.56244 8.90735 6.24827 8.96764 5.94518C9.02793 5.64208 9.17674 5.36367 9.39526 5.14515C9.61378 4.92663 9.89219 4.77782 10.1953 4.71753C10.4984 4.65724 10.8125 4.68818 11.0981 4.80644C11.3836 4.9247 11.6276 5.12497 11.7993 5.38193C11.971 5.63888 12.0626 5.94097 12.0626 6.25C12.0626 6.66441 11.898 7.06183 11.605 7.35486C11.3119 7.64788 10.9145 7.8125 10.5001 7.8125ZM12.6876 10C12.6876 9.69097 12.7793 9.38888 12.9509 9.13193C13.1226 8.87497 13.3667 8.6747 13.6522 8.55644C13.9377 8.43818 14.2518 8.40724 14.5549 8.46753C14.858 8.52782 15.1364 8.67663 15.355 8.89515C15.5735 9.11367 15.7223 9.39208 15.7826 9.69518C15.8429 9.99827 15.8119 10.3124 15.6937 10.5979C15.5754 10.8835 15.3751 11.1275 15.1182 11.2992C14.8612 11.4709 14.5591 11.5625 14.2501 11.5625C13.8357 11.5625 13.4383 11.3979 13.1453 11.1049C12.8522 10.8118 12.6876 10.4144 12.6876 10Z" fill="white"/>
</svg>
