<svg width="20" height="20" viewBox="0 0 20 20" fill="none" xmlns="http://www.w3.org/2000/svg">
<path fill-rule="evenodd" clip-rule="evenodd" d="M1.66699 10.0047C1.66699 5.40505 5.40734 1.6665 10.0003 1.6665C14.5933 1.6665 18.3337 5.40505 18.3337 10.0047C18.3337 14.5946 14.5933 18.3332 10.0003 18.3332C5.40734 18.3332 1.66699 14.5946 1.66699 10.0047ZM13.057 10.848C13.1454 10.7596 13.258 10.6229 13.2822 10.5908C13.4109 10.4219 13.4752 10.2129 13.4752 10.0047C13.4752 9.7707 13.4028 9.55362 13.2661 9.37675C13.2549 9.36554 13.2329 9.34166 13.2043 9.31053C13.1508 9.2523 13.074 9.1687 13.0006 9.09535C12.3411 8.38784 10.6197 7.2301 9.71879 6.87634C9.58205 6.82087 9.23617 6.69947 9.05116 6.69143C8.8742 6.69143 8.70528 6.73163 8.54441 6.81203C8.34331 6.92458 8.18244 7.10146 8.09396 7.3105C8.03765 7.45522 7.94917 7.88937 7.94917 7.89741C7.86069 8.37176 7.81242 9.14359 7.81242 9.99582C7.81242 10.8086 7.86069 11.5475 7.93308 12.0299C7.93507 12.0319 7.94199 12.0664 7.95274 12.12C7.98542 12.2829 8.0535 12.6224 8.12613 12.7615C8.30309 13.0992 8.64897 13.3082 9.01899 13.3082H9.05116C9.29248 13.3002 9.79923 13.0912 9.79923 13.0831C10.6519 12.7294 12.333 11.6279 13.0087 10.8963L13.057 10.848Z" fill="white"/>
</svg>
