<svg width="24" height="25" viewBox="0 0 24 25" fill="none" xmlns="http://www.w3.org/2000/svg">
<path d="M22.2806 11.1825L14.7806 18.6825C14.6757 18.7875 14.542 18.859 14.3964 18.888C14.2509 18.917 14.1 18.9021 13.9629 18.8453C13.8257 18.7885 13.7086 18.6923 13.6262 18.5688C13.5437 18.4454 13.4998 18.3003 13.4999 18.1518V14.4234C8.14682 14.7271 4.47651 18.1987 3.44619 19.2984C3.28441 19.4712 3.07225 19.5885 2.83991 19.6337C2.60757 19.679 2.36689 19.6497 2.15212 19.5502C1.93735 19.4508 1.75943 19.2861 1.64368 19.0796C1.52794 18.8731 1.48026 18.6354 1.50744 18.4003C1.85526 15.3759 3.51182 12.4668 6.17244 10.2093C8.38213 8.33434 11.0681 7.14465 13.4999 6.93652V3.15184C13.4998 3.00341 13.5437 2.85829 13.6262 2.73485C13.7086 2.6114 13.8257 2.51518 13.9629 2.45837C14.1 2.40155 14.2509 2.3867 14.3964 2.41569C14.542 2.44468 14.6757 2.5162 14.7806 2.62121L22.2806 10.1212C22.3503 10.1909 22.4056 10.2736 22.4434 10.3646C22.4811 10.4557 22.5005 10.5533 22.5005 10.6518C22.5005 10.7504 22.4811 10.848 22.4434 10.939C22.4056 11.0301 22.3503 11.1128 22.2806 11.1825Z" fill="#AD59F3"/>
</svg>
