<svg width="20" height="20" viewBox="0 0 20 20" fill="none" xmlns="http://www.w3.org/2000/svg">
<path d="M11.0109 3.62178C11.0432 3.58947 11.0821 3.56463 11.1251 3.54902C11.168 3.53341 11.2139 3.5274 11.2594 3.53142C11.3049 3.53544 11.349 3.5494 11.3885 3.5723C11.428 3.5952 11.4621 3.62649 11.4882 3.66397C12.1474 4.60486 12.5007 5.72605 12.4999 6.8749C12.4993 7.12102 12.4829 7.36684 12.4507 7.61084L17.8812 15.0171C18.0589 15.2575 18.1442 15.5538 18.1214 15.8519C18.0986 16.15 17.9692 16.43 17.7569 16.6405L16.6405 17.7569C16.43 17.9692 16.1501 18.0985 15.852 18.1214C15.5539 18.1442 15.2575 18.0589 15.0171 17.8812L7.61007 12.4491C7.36637 12.4818 7.12081 12.4988 6.87492 12.4999C5.7265 12.501 4.60562 12.1483 3.66476 11.4897C3.62729 11.4636 3.59599 11.4296 3.57309 11.39C3.55019 11.3505 3.53624 11.3064 3.53222 11.2609C3.5282 11.2154 3.5342 11.1696 3.54982 11.1266C3.56543 11.0837 3.59026 11.0447 3.62257 11.0124L11.0109 3.62178ZM10.8069 11.6905L12.0569 12.9405C12.1144 13.001 12.1834 13.0494 12.2598 13.0828C12.3363 13.1162 12.4186 13.1339 12.5021 13.135C12.5855 13.1361 12.6683 13.1204 12.7455 13.089C12.8228 13.0576 12.893 13.011 12.952 12.952C13.011 12.893 13.0576 12.8228 13.089 12.7455C13.1204 12.6682 13.1361 12.5855 13.135 12.502C13.1339 12.4186 13.1162 12.3363 13.0828 12.2598C13.0494 12.1834 13.001 12.1144 12.9405 12.0569L11.6905 10.8069C11.5724 10.6947 11.415 10.633 11.2521 10.6351C11.0891 10.6372 10.9334 10.7029 10.8181 10.8181C10.7029 10.9334 10.6372 11.0891 10.6351 11.252C10.633 11.415 10.6947 11.5724 10.8069 11.6905ZM2.26007 10.0843C2.2862 10.1219 2.32027 10.1533 2.35987 10.1763C2.39948 10.1993 2.44365 10.2133 2.48926 10.2173C2.53488 10.2213 2.58082 10.2153 2.62383 10.1996C2.66685 10.1839 2.70589 10.1589 2.7382 10.1265L10.1265 2.73818C10.1589 2.70588 10.1839 2.66684 10.1996 2.62382C10.2153 2.5808 10.2213 2.53486 10.2173 2.48925C10.2133 2.44363 10.1993 2.39946 10.1763 2.35986C10.1533 2.32025 10.1219 2.28618 10.0843 2.26006C9.00211 1.50494 7.68871 1.15473 6.37424 1.27082C5.05976 1.3869 3.82806 1.96186 2.89497 2.89495C1.96188 3.82805 1.38692 5.05975 1.27083 6.37422C1.15475 7.6887 1.50495 9.0021 2.26007 10.0843Z" fill="white"/>
</svg>
