<svg width="21" height="20" viewBox="0 0 21 20" fill="none" xmlns="http://www.w3.org/2000/svg">
<path d="M10.5 1.875C8.89303 1.875 7.32214 2.35152 5.986 3.24431C4.64985 4.1371 3.60844 5.40605 2.99348 6.8907C2.37852 8.37535 2.21762 10.009 2.53112 11.5851C2.84463 13.1612 3.61846 14.6089 4.75476 15.7452C5.89106 16.8815 7.3388 17.6554 8.9149 17.9689C10.491 18.2824 12.1247 18.1215 13.6093 17.5065C15.094 16.8916 16.3629 15.8502 17.2557 14.514C18.1485 13.1779 18.625 11.607 18.625 10C18.6227 7.84581 17.766 5.78051 16.2427 4.25727C14.7195 2.73403 12.6542 1.87727 10.5 1.875ZM11.125 4.95156L13.0617 3.61953C14.1706 4.0662 15.1445 4.79302 15.8883 5.72891L15.2633 7.83359C15.2477 7.83359 15.2313 7.84141 15.2156 7.84688L13.4328 8.42578C13.4061 8.43433 13.38 8.44478 13.3547 8.45703L11.125 6.92344C11.125 6.90781 11.125 6.89141 11.125 6.875V5C11.125 4.98359 11.125 4.96719 11.125 4.95156ZM7.94063 3.61953L9.875 4.95156C9.875 4.96719 9.875 4.98359 9.875 5V6.875C9.875 6.89141 9.875 6.90781 9.875 6.92344L7.64375 8.46016C7.61848 8.4479 7.59238 8.43746 7.56563 8.42891L5.78282 7.85C5.76719 7.84453 5.75079 7.84062 5.73516 7.83672L5.11016 5.73203C5.85463 4.79446 6.83 4.0665 7.94063 3.61953ZM6.925 13.7047H4.71094C4.06284 12.697 3.69129 11.5366 3.6336 10.3398L5.35235 9.02109C5.36713 9.02763 5.38226 9.03337 5.39766 9.03828L7.18125 9.61797C7.2051 9.62517 7.22936 9.63091 7.25391 9.63516L8.09688 12.0898C8.08516 12.1039 8.07344 12.118 8.0625 12.1328L6.96094 13.6492C6.94797 13.667 6.93597 13.6856 6.925 13.7047ZM12.2727 16.6406C11.1111 16.95 9.88887 16.95 8.72735 16.6406L7.94141 14.4219C7.95157 14.4094 7.9625 14.3977 7.97188 14.3844L9.07422 12.8672C9.08719 12.8496 9.09919 12.8314 9.11016 12.8125H11.8898C11.9008 12.8314 11.9128 12.8496 11.9258 12.8672L13.0281 14.3844C13.0375 14.3977 13.0484 14.4094 13.0586 14.4219L12.2727 16.6406ZM14.075 13.7023C14.064 13.6832 14.052 13.6647 14.0391 13.6469L12.9367 12.1328C12.9258 12.118 12.9141 12.1039 12.9023 12.0898L13.7453 9.63516C13.7699 9.63091 13.7941 9.62517 13.818 9.61797L15.6016 9.03828C15.617 9.03337 15.6321 9.02763 15.6469 9.02109L17.3656 10.3398C17.3079 11.5366 16.9364 12.697 16.2883 13.7047L14.075 13.7023Z" fill="white"/>
</svg>
